<svg xmlns="http://www.w3.org/2000/svg" width="21.04" height="21.04" viewBox="0 0 21.04 21.04"><defs><style>.a{fill:#939393;}</style></defs><path class="a" d="M10.52,0A10.52,10.52,0,1,0,21.04,10.52,10.532,10.532,0,0,0,10.52,0Zm0,19.671a9.151,9.151,0,1,1,9.151-9.151A9.162,9.162,0,0,1,10.52,19.671Z"/><path class="a" d="M86.665,80.026a.685.685,0,0,0-.945.208,3.573,3.573,0,1,1-.049-3.919.684.684,0,0,0,1.134-.766,4.941,4.941,0,1,0,.068,5.423A.684.684,0,0,0,86.665,80.026Z" transform="translate(-71.854 -67.792)"/></svg>