<svg xmlns="http://www.w3.org/2000/svg" width="990" height="396" viewBox="0 0 990 396"><defs><style>.a,.e,.h{fill:none;}.a{stroke:#ededed;}.b{fill:#707070;font-size:20px;}.b,.d{font-family:DINNextLTW23-Regular, DIN Next LT W23;}.c{fill:#e8e8e8;}.d{fill:#939393;}.d,.f{font-size:19px;}.e{stroke:#8dc640;stroke-width:2px;}.f{fill:#8dc640;font-family:DINNextLTW23-Medium, DIN Next LT W23;font-weight:500;}.g{stroke:none;}</style></defs><g transform="translate(-182.5 -1580.5)"><rect class="a" width="989" height="395" rx="5" transform="translate(183 1581)"/><g transform="translate(756 1620)"><text class="b" transform="translate(212)"><tspan x="5.68" y="24">اسم حامل البطاقة:</tspan></text><rect class="c" width="360" height="53" rx="6" transform="translate(0 52)"/><text class="d" transform="translate(155 63)"><tspan x="3.385" y="23">CARD HOLDER NAME</tspan></text></g><g transform="translate(756 1755)"><text class="b" transform="translate(218)"><tspan x="59.6" y="24"> </tspan><tspan y="24">تاريخ انتهاء</tspan></text><rect class="c" width="176" height="53" rx="6" transform="translate(184 52)"/><text class="d" transform="translate(272 63)"><tspan x="9.885" y="23">23/21</tspan></text></g><g transform="translate(249.634 1620)"><text class="b" transform="translate(264.366)"><tspan x="1" y="24">رقم البطاقة:</tspan></text><rect class="c" width="360" height="53" rx="6" transform="translate(0.366 52)"/><text class="d" transform="translate(140.366 63)"><tspan x="18.29" y="23">123 456 665 909 009</tspan></text></g><g transform="translate(249.634 1755)"><text class="b" transform="translate(321.366)"><tspan x="5.26" y="24">CVC</tspan></text><rect class="c" width="360" height="53" rx="6" transform="translate(0.366 52)"/><text class="d" transform="translate(295.366 63)"><tspan x="1.106" y="23">874</tspan></text></g><g class="e" transform="translate(615.5 1902)"><rect class="g" width="123" height="53" rx="26.5"/><rect class="h" x="1" y="1" width="121" height="51" rx="25.5"/></g><text class="f" transform="translate(664.5 1912)"><tspan x="7.045" y="23">تم</tspan></text></g></svg>