<svg xmlns="http://www.w3.org/2000/svg" xmlns:xlink="http://www.w3.org/1999/xlink" width="210.646" height="30" viewBox="0 0 210.646 30"><defs><style>.a{fill:#939393;font-size:19px;font-family:DINNextLTW23-Regular, DIN Next LT W23;}.b{fill:url(#a);}</style><linearGradient id="a" x1="0.227" y1="0.205" x2="0.675" y2="1" gradientUnits="objectBoundingBox"><stop offset="0" stop-color="#e94150"/><stop offset="1" stop-color="#4ea9e0"/></linearGradient></defs><g transform="translate(-144.354 -4631)"><text class="a" transform="translate(249 4631)"><tspan x="2.963" y="23">تصميم وتطوير</tspan></text><path class="b" d="M1.2,8.1H2.915l6.152,8.552q.343.472.664.965t.579.965h.043q-.043-.75-.064-1.5t-.021-1.5V8.1H12.2V21.6H10.481L4.394,13.155q-.322-.45-.664-1.018t-.643-1.125H3.043q.043.9.064,1.8t.021,1.8V21.6H1.2Zm21.177,0h1.758l5.38,13.5H27.457L25.978,17.85H20.427L18.969,21.6H16.933Zm-1.415,8.188H25.4l-.9-2.336q-.364-.922-.664-1.779t-.6-1.758h-.043q-.3.9-.622,1.736t-.686,1.8ZM38.646,8.1A8.358,8.358,0,0,1,41.3,8.5a5.878,5.878,0,0,1,2.111,1.211,5.531,5.531,0,0,1,1.393,2.015,7.3,7.3,0,0,1,.5,2.819,8.111,8.111,0,0,1-.6,3.3,5.837,5.837,0,0,1-1.618,2.186,6.252,6.252,0,0,1-2.358,1.2,10.778,10.778,0,0,1-2.84.364H34.252V8.1ZM36.224,19.972H37.7a9.025,9.025,0,0,0,2.015-.225,4.268,4.268,0,0,0,1.747-.836A4.382,4.382,0,0,0,42.7,17.249a6.634,6.634,0,0,0,.472-2.7,5.752,5.752,0,0,0-.343-2.058,4.025,4.025,0,0,0-.986-1.511,4.3,4.3,0,0,0-1.554-.932,6.054,6.054,0,0,0-2.026-.322H36.224ZM54.807,7.9a11.085,11.085,0,0,1,1.908.161,7.041,7.041,0,0,1,1.822.589l-.472,1.629A9.271,9.271,0,0,0,56.4,9.672a6.293,6.293,0,0,0-1.511-.182,3.124,3.124,0,0,0-1.929.536,1.774,1.774,0,0,0-.707,1.5,1.709,1.709,0,0,0,.525,1.307,4.43,4.43,0,0,0,1.725.857l1.35.429a5.1,5.1,0,0,1,2.6,1.575,3.719,3.719,0,0,1,.407,3.837,3.551,3.551,0,0,1-.986,1.222,4.534,4.534,0,0,1-1.49.772,6.3,6.3,0,0,1-1.886.268,12.333,12.333,0,0,1-2.09-.182,8.243,8.243,0,0,1-2.111-.675l.472-1.608a8.941,8.941,0,0,0,1.8.664,7.754,7.754,0,0,0,1.843.214,3.508,3.508,0,0,0,1.972-.536,1.776,1.776,0,0,0,.815-1.586,2.132,2.132,0,0,0-.118-.718,1.768,1.768,0,0,0-.407-.632,3.017,3.017,0,0,0-.782-.557,7.75,7.75,0,0,0-1.243-.493l-1.35-.429a5.4,5.4,0,0,1-2.272-1.286,3.029,3.029,0,0,1-.793-2.208A3.582,3.582,0,0,1,51.41,8.944,4.956,4.956,0,0,1,54.807,7.9Zm19.012,8.552a6.227,6.227,0,0,1-.386,2.261A4.867,4.867,0,0,1,72.373,20.4,4.49,4.49,0,0,1,70.8,21.44a5.287,5.287,0,0,1-1.951.354,5.5,5.5,0,0,1-1.94-.332,4.264,4.264,0,0,1-1.543-.986,4.64,4.64,0,0,1-1.029-1.608,5.973,5.973,0,0,1-.375-2.2,6.141,6.141,0,0,1,.386-2.251,4.773,4.773,0,0,1,1.061-1.661,4.562,4.562,0,0,1,1.575-1.029,5.287,5.287,0,0,1,1.951-.354,5.667,5.667,0,0,1,1.94.322,4.214,4.214,0,0,1,1.543.965,4.528,4.528,0,0,1,1.029,1.6A5.973,5.973,0,0,1,73.819,16.456Zm-1.972.107a5.04,5.04,0,0,0-.257-1.715,3.369,3.369,0,0,0-.675-1.157,2.509,2.509,0,0,0-.954-.654,3.054,3.054,0,0,0-1.093-.2,3.566,3.566,0,0,0-1.093.171,2.22,2.22,0,0,0-.943.6,3.1,3.1,0,0,0-.654,1.147,5.655,5.655,0,0,0-.246,1.811,5.134,5.134,0,0,0,.257,1.725,3.355,3.355,0,0,0,.675,1.168,2.622,2.622,0,0,0,.954.664,2.92,2.92,0,0,0,1.093.214A3.374,3.374,0,0,0,70,20.154a2.269,2.269,0,0,0,.943-.622,3.212,3.212,0,0,0,.654-1.157A5.655,5.655,0,0,0,71.847,16.563ZM82.908,6.275a4.94,4.94,0,0,1,1.254.171,6.032,6.032,0,0,1,1.168.429l-.386,1.307a6.351,6.351,0,0,0-.814-.268,3.347,3.347,0,0,0-.815-.1,1.728,1.728,0,0,0-1.468.579,3.347,3.347,0,0,0-.439,1.972v1.157h3.065v1.415H81.407V21.6H79.542V12.941H78.063V11.526h1.479V9.747a3.557,3.557,0,0,1,.868-2.572A3.309,3.309,0,0,1,82.908,6.275Zm11.4,6.666H91.353v5.852a1.146,1.146,0,0,0,.375,1.007,1.691,1.691,0,0,0,.975.257,5.15,5.15,0,0,0,.943-.1,6.883,6.883,0,0,0,.9-.225l.3,1.436a6.15,6.15,0,0,1-1.093.3,7.321,7.321,0,0,1-1.393.129,3.088,3.088,0,0,1-2.186-.654,2.5,2.5,0,0,1-.686-1.9V12.941h-1.5V11.526h1.5V8.311h1.865v3.215h2.958Z" transform="translate(143.154 4635.725)"/></g></svg>