<svg xmlns="http://www.w3.org/2000/svg" xmlns:xlink="http://www.w3.org/1999/xlink" width="420.253" height="85" viewBox="0 0 420.253 85"><defs><style>.a{fill:#939393;font-size:18px;}.a,.c{font-family:DINNextLTW23-Regular, DIN Next LT W23;}.b{fill:url(#a);}.c{fill:#707070;font-size:23px;}.d,.e{fill:#fff;stroke-width:2px;}.d{stroke:#939393;}.e{stroke:#8dc640;}.f{fill:#8dc640;}.g{stroke:none;}.h{fill:none;}</style><linearGradient id="a" x1="1.036" x2="0.119" y2="0.921" gradientUnits="objectBoundingBox"><stop offset="0" stop-color="#8dc640"/><stop offset="1" stop-color="#436910"/></linearGradient></defs><g transform="translate(-467.747 -589)"><text class="a" transform="translate(752 642)"><tspan x="0.704" y="22">بطاقة الاعتماد</tspan></text><g transform="translate(705 566)"><path class="b" d="M34,85.512V83.719A3.719,3.719,0,0,0,30.281,80H3.719A3.719,3.719,0,0,0,0,83.719v1.793a.332.332,0,0,0,.332.332H33.668A.332.332,0,0,0,34,85.512Z"/><path class="b" d="M0,200.332v11.355a3.719,3.719,0,0,0,3.719,3.719H30.281A3.719,3.719,0,0,0,34,211.688V200.332a.332.332,0,0,0-.332-.332H.332A.332.332,0,0,0,0,200.332Zm8.5,8.7a1.063,1.063,0,0,1-1.062,1.063H6.375a1.063,1.063,0,0,1-1.062-1.062v-1.062a1.063,1.063,0,0,1,1.063-1.062H7.438A1.063,1.063,0,0,1,8.5,207.969Z" transform="translate(0 -112.031)"/></g><text class="c" transform="translate(734 589)"><tspan x="4.201" y="28">اختر طريقة الدفع:</tspan></text><g transform="translate(571.085 646)"><g class="d" transform="translate(-0.085)"><rect class="g" width="25" height="25" rx="12.5"/><rect class="h" x="1" y="1" width="23" height="23" rx="11.5"/></g></g><text class="a" transform="translate(504 642)"><tspan x="4.836" y="22">Paypal</tspan></text><g transform="translate(430.395 644)"><g transform="translate(37.352)"><path class="b" d="M57.153,2.054C55.883.616,53.586,0,50.648,0H42.119a1.22,1.22,0,0,0-1.206,1.021L37.361,23.365a.728.728,0,0,0,.723.839h5.265l1.322-8.321-.041.262a1.215,1.215,0,0,1,1.2-1.021h2.5c4.916,0,8.763-1.981,9.888-7.71.034-.17.087-.5.087-.5A5.413,5.413,0,0,0,57.153,2.054Z" transform="translate(-37.352)"/></g><g transform="translate(44.418 8.003)"><path class="b" d="M185.449,150.5c-1.222,5.641-5.12,8.625-11.307,8.625H171.9l-1.674,10.6h3.638a1.065,1.065,0,0,0,1.055-.9l.043-.225.837-5.26.054-.289a1.065,1.065,0,0,1,1.053-.9h.665c4.3,0,7.666-1.732,8.649-6.743C186.615,153.4,186.424,151.714,185.449,150.5Z" transform="translate(-170.225 -150.496)"/></g></g><g transform="translate(863.085 646)"><g class="e" transform="translate(-0.085)"><rect class="g" width="25" height="25" rx="12.5"/><rect class="h" x="1" y="1" width="23" height="23" rx="11.5"/></g><rect class="f" width="9" height="9" rx="4.5" transform="translate(7.915 8)"/></g></g></svg>