<svg xmlns="http://www.w3.org/2000/svg" width="341" height="30" viewBox="0 0 341 30"><defs><style>.a,.c,.d{fill:#939393;}.a,.b{font-size:19px;}.a,.b,.c{font-family:DINNextLTW23-Regular, DIN Next LT W23;}.b{fill:#8dc640;}.c{font-size:20px;}</style></defs><g transform="translate(-579 -4631)"><text class="a" transform="translate(699 4631)"><tspan x="0.638" y="23"> </tspan><tspan y="23">جميع الحقوق محفوظة لموقع</tspan></text><text class="b" transform="translate(656 4631)"><tspan x="2.052" y="23">حملة</tspan></text><text class="c" transform="translate(579 4631)"><tspan x="2.64" y="24">2020</tspan></text><g transform="translate(630 4637)"><path class="d" d="M10.52,0A10.52,10.52,0,1,0,21.04,10.52,10.532,10.532,0,0,0,10.52,0Zm0,19.671a9.151,9.151,0,1,1,9.151-9.151A9.162,9.162,0,0,1,10.52,19.671Z"/><path class="d" d="M86.665,80.026a.685.685,0,0,0-.945.208,3.573,3.573,0,1,1-.049-3.919.684.684,0,0,0,1.134-.766,4.941,4.941,0,1,0,.068,5.423A.684.684,0,0,0,86.665,80.026Z" transform="translate(-71.854 -67.792)"/></g></g></svg>