<svg xmlns="http://www.w3.org/2000/svg" width="425.113" height="167" viewBox="0 0 425.113 167"><defs><style>.a{fill:#707070;font-size:23px;}.a,.c{font-family:DINNextLTW23-Regular, DIN Next LT W23;}.b{fill:#e8e8e8;}.c{fill:#939393;font-size:19px;}.d{fill:#609b11;}.e{fill:#fff;font-size:18px;font-family:Poppins-Regular, Poppins;}</style></defs><g transform="translate(-472 -720)"><text class="a" transform="translate(762 720)"><tspan x="0.394" y="28">اختر مبلغ التبرع:</tspan></text><rect class="b" width="422" height="53" rx="6" transform="translate(472 834)"/><text class="c" transform="translate(823 845)"><tspan x="0.808" y="23">400$</tspan></text><rect class="d" width="77.11" height="48" rx="6" transform="translate(559 774)"/><rect class="d" width="77.11" height="48" rx="6" transform="translate(472 774)"/><rect class="d" width="77.11" height="48" rx="6" transform="translate(646 774)"/><path class="d" d="M6.426,0H70.687a6.224,6.224,0,0,1,6.426,6V42a6.224,6.224,0,0,1-6.426,6H6.426A6.224,6.224,0,0,1,0,42V6A6.224,6.224,0,0,1,6.426,0Z" transform="translate(820 774)"/><rect class="d" width="77.11" height="48" rx="6" transform="translate(733 774)"/><text class="e" transform="translate(576 805)"><tspan x="0" y="0">250$</tspan></text><text class="e" transform="translate(489 805)"><tspan x="0" y="0">300$</tspan></text><text class="e" transform="translate(663 805)"><tspan x="0" y="0">200$</tspan></text><text class="e" transform="translate(838 805)"><tspan x="0" y="0">100$</tspan></text><text class="e" transform="translate(752 805)"><tspan x="0" y="0">150$</tspan></text></g></svg>