<svg xmlns="http://www.w3.org/2000/svg" width="26.644" height="26.644" viewBox="0 0 26.644 26.644"><defs><style>.a{fill:#94c122;}</style></defs><path class="a" d="M25.7,25.81h.007V16.037c0-4.78-1.029-8.463-6.618-8.463a5.8,5.8,0,0,0-5.226,2.872h-.078V8.02h-5.3V25.809h5.518V17c0-2.319.44-4.562,3.312-4.562,2.83,0,2.872,2.647,2.872,4.71v8.66Z" transform="translate(0.935 0.834)"/><path class="a" d="M.4,7.977H5.92V25.765H.4Z" transform="translate(0.044 0.879)"/><path class="a" d="M3.2,0A3.215,3.215,0,1,0,6.4,3.2,3.2,3.2,0,0,0,3.2,0Z"/></svg>