<svg xmlns="http://www.w3.org/2000/svg" width="31.653" height="22.163" viewBox="0 0 31.653 22.163"><defs><style>.a{fill:#94c122;}</style></defs><path class="a" d="M15.827,22.163c-.025,0-2.5,0-5.254-.085-1.616-.049-3.009-.117-4.14-.2a18.38,18.38,0,0,1-2.991-.392,3.967,3.967,0,0,1-2.79-2.79,15.753,15.753,0,0,1-.377-2.224c-.081-.733-.146-1.575-.194-2.5C0,12.39,0,11.094,0,11.081S0,9.779.081,8.2c.047-.925.112-1.767.194-2.5A16.067,16.067,0,0,1,.652,3.468,4.015,4.015,0,0,1,1.685,1.688,3.967,3.967,0,0,1,3.442.652,18.8,18.8,0,0,1,6.422.275C7.552.194,8.945.129,10.563.082,13.318,0,15.8,0,15.826,0s2.509,0,5.264.085c1.618.049,3.011.117,4.141.2a18.123,18.123,0,0,1,2.98.392A3.966,3.966,0,0,1,31,3.468a15.208,15.208,0,0,1,.388,2.239c.082.736.147,1.581.192,2.51.077,1.583.072,2.878.072,2.891s0,1.3-.081,2.878c-.047.925-.112,1.767-.193,2.5A16.07,16.07,0,0,1,31,18.721a3.966,3.966,0,0,1-2.79,2.79,18.8,18.8,0,0,1-2.98.377c-1.13.081-2.523.146-4.141.194C18.335,22.162,15.851,22.163,15.827,22.163ZM12.672,6.336v9.491l8.239-4.745Z" transform="translate(0 0)"/></svg>