<svg xmlns="http://www.w3.org/2000/svg" width="28.217" height="21.163" viewBox="0 0 28.217 21.163"><defs><style>.a{fill:#94c122;}</style></defs><g transform="translate(0 0)"><g transform="translate(0 0)"><path class="a" d="M7.122,65.717C10.994,69,17.79,74.767,19.787,76.566a1.18,1.18,0,0,0,1.707,0c2-1.8,8.794-7.572,12.667-10.851a.587.587,0,0,0,.083-.811A2.335,2.335,0,0,0,32.4,64H8.884a2.334,2.334,0,0,0-1.845.906A.587.587,0,0,0,7.122,65.717Z" transform="translate(-6.533 -64)"/><path class="a" d="M27.876,126.466a.585.585,0,0,0-.627.085c-4.295,3.641-9.776,8.308-11.5,9.862a2.38,2.38,0,0,1-3.281,0c-1.838-1.656-7.994-6.889-11.5-9.86A.588.588,0,0,0,0,127v14.784a2.354,2.354,0,0,0,2.351,2.351H25.866a2.354,2.354,0,0,0,2.351-2.351V127A.588.588,0,0,0,27.876,126.466Z" transform="translate(0 -122.972)"/></g></g></svg>