<svg xmlns="http://www.w3.org/2000/svg" xmlns:xlink="http://www.w3.org/1999/xlink" width="23.253" height="27.226" viewBox="0 0 23.253 27.226"><defs><style>.a{fill:url(#a);}</style><linearGradient id="a" x1="1.036" x2="0.119" y2="0.921" gradientUnits="objectBoundingBox"><stop offset="0" stop-color="#8dc640"/><stop offset="1" stop-color="#436910"/></linearGradient></defs><g transform="translate(-37.352)"><g transform="translate(37.352)"><path class="a" d="M57.153,2.054C55.883.616,53.586,0,50.648,0H42.119a1.22,1.22,0,0,0-1.206,1.021L37.361,23.365a.728.728,0,0,0,.723.839h5.265l1.322-8.321-.041.262a1.215,1.215,0,0,1,1.2-1.021h2.5c4.916,0,8.763-1.981,9.888-7.71.034-.17.087-.5.087-.5A5.413,5.413,0,0,0,57.153,2.054Z" transform="translate(-37.352)"/></g><g transform="translate(44.418 8.003)"><path class="a" d="M185.449,150.5c-1.222,5.641-5.12,8.625-11.307,8.625H171.9l-1.674,10.6h3.638a1.065,1.065,0,0,0,1.055-.9l.043-.225.837-5.26.054-.289a1.065,1.065,0,0,1,1.053-.9h.665c4.3,0,7.666-1.732,8.649-6.743C186.615,153.4,186.424,151.714,185.449,150.5Z" transform="translate(-170.225 -150.496)"/></g></g></svg>