<svg xmlns="http://www.w3.org/2000/svg" width="30.332" height="24.645" viewBox="0 0 30.332 24.645"><defs><style>.a{fill:#94c122;}</style></defs><path class="a" d="M30.332,50.918a12.965,12.965,0,0,1-3.583.982,6.183,6.183,0,0,0,2.736-3.437,12.427,12.427,0,0,1-3.943,1.505A6.218,6.218,0,0,0,14.785,54.22a6.4,6.4,0,0,0,.144,1.418,17.6,17.6,0,0,1-12.817-6.5,6.22,6.22,0,0,0,1.911,8.311,6.141,6.141,0,0,1-2.809-.766v.068A6.247,6.247,0,0,0,6.2,62.857a6.206,6.206,0,0,1-1.63.2,5.5,5.5,0,0,1-1.177-.106A6.277,6.277,0,0,0,9.2,67.287a12.494,12.494,0,0,1-7.71,2.652A11.645,11.645,0,0,1,0,69.854a17.506,17.506,0,0,0,9.539,2.791c11.443,0,17.7-9.479,17.7-17.695,0-.275-.009-.54-.023-.8A12.405,12.405,0,0,0,30.332,50.918Z" transform="translate(0 -48)"/></svg>